<svg width="212" height="122" viewBox="0 0 212 122" fill="none" xmlns="http://www.w3.org/2000/svg">
<path d="M49.88 121.08C42.3707 121.08 36.3973 119.203 31.96 115.448C27.5227 111.779 25.6027 106.573 26.2 99.832L28.12 78.84C28.5467 74.3173 27.9067 71.0747 26.2 69.112C24.4933 67.064 20.8667 66.04 15.32 66.04H0.6V55.8H15.32C20.8667 55.8 24.4933 54.8187 26.2 52.856C27.9067 50.808 28.5467 47.5227 28.12 43L26.2 22.008C25.6027 15.2667 27.5227 10.0613 31.96 6.392C36.3973 2.63733 42.3707 0.759995 49.88 0.759995H55.64V11H49.88C45.8693 11 42.7547 11.9387 40.536 13.816C38.3173 15.608 37.3787 18.3387 37.72 22.008L39.64 43C40.0667 47.864 39.0853 51.832 36.696 54.904C34.392 57.8907 31.1067 59.7253 26.84 60.408C31.1067 61.176 34.392 63.224 36.696 66.552C39.0853 69.88 40.0667 73.976 39.64 78.84L37.72 99.832C37.3787 103.501 38.3173 106.232 40.536 108.024C42.7547 109.901 45.8693 110.84 49.88 110.84H55.64V121.08H49.88ZM79.654 107V13.56H106.15C114.683 13.56 121.339 15.6933 126.118 19.96C130.982 24.2267 133.414 30.1573 133.414 37.752C133.414 42.872 132.177 47.1813 129.702 50.68C127.227 54.0933 123.771 56.3973 119.334 57.592C124.369 59.0427 128.337 61.816 131.238 65.912C134.139 69.9227 135.59 74.9573 135.59 81.016C135.59 89.0373 133.115 95.3947 128.166 100.088C123.302 104.696 116.603 107 108.07 107H79.654ZM90.918 53.368H106.022C110.971 53.368 114.854 52.0453 117.67 49.4C120.571 46.7547 122.022 43.1707 122.022 38.648C122.022 34.1253 120.614 30.5413 117.798 27.896C114.982 25.2507 111.099 23.928 106.15 23.928H90.918V53.368ZM90.918 96.632H106.79C112.166 96.632 116.39 95.224 119.462 92.408C122.619 89.5067 124.198 85.5813 124.198 80.632C124.198 75.512 122.619 71.3733 119.462 68.216C116.39 64.9733 112.166 63.352 106.79 63.352H90.918V96.632ZM156.66 121.08V110.84H162.42C166.431 110.84 169.545 109.901 171.764 108.024C173.983 106.232 174.921 103.501 174.58 99.832L172.66 78.84C172.233 73.976 173.172 69.88 175.476 66.552C177.865 63.1387 181.193 61.048 185.46 60.28C181.193 59.5973 177.865 57.7627 175.476 54.776C173.172 51.7893 172.233 47.864 172.66 43L174.58 22.008C174.921 18.3387 173.983 15.608 171.764 13.816C169.545 11.9387 166.431 11 162.42 11H156.66V0.759995H162.42C170.015 0.759995 176.031 2.63733 180.468 6.392C184.905 10.0613 186.783 15.2667 186.1 22.008L184.18 43C183.839 47.5227 184.479 50.808 186.1 52.856C187.807 54.8187 191.433 55.8 196.98 55.8H211.7V66.04H196.98C191.519 66.04 187.935 67.064 186.228 69.112C184.521 71.0747 183.839 74.3173 184.18 78.84L186.1 99.832C186.783 106.573 184.905 111.779 180.468 115.448C176.031 119.203 170.015 121.08 162.42 121.08H156.66Z" fill="url(#paint0_linear_1_4)"/>
<defs>
<linearGradient id="paint0_linear_1_4" x1="109" y1="-24" x2="109" y2="122" gradientUnits="userSpaceOnUse">
<stop stop-color="#00C0FD"/>
<stop offset="1" stop-color="#E70FAA"/>
</linearGradient>
</defs>
</svg>
